<svg width="20" height="20" viewBox="0 0 20 20" fill="none" xmlns="http://www.w3.org/2000/svg">
<path d="M16.958 11.4209C17.1263 11.4209 17.2881 11.4525 17.4424 11.5156C17.5965 11.5787 17.7371 11.6737 17.8633 11.7998L18.6426 12.5791C18.7546 12.7053 18.8422 12.8458 18.9053 13C18.9684 13.1543 19 13.3086 19 13.4629C19 13.6172 18.9721 13.7752 18.916 13.9365C18.8599 14.0977 18.7687 14.242 18.6426 14.3682L14.0107 19H11.4209V16.4102L16.0742 11.7783C16.2003 11.6523 16.341 11.5609 16.4951 11.5049C16.6493 11.4489 16.8039 11.4209 16.958 11.4209ZM15.3154 3C16.42 3 17.3154 3.89543 17.3154 5V10.1328H16.3154V5C16.3154 4.44771 15.8677 4 15.3154 4H5C4.44772 4 4 4.44772 4 5V16.1582C4.00017 16.7103 4.44782 17.1582 5 17.1582H9.8418V18.1582H5L4.7959 18.1475C3.85443 18.052 3.10633 17.3037 3.01074 16.3623L3 16.1582V5C3 3.96435 3.78722 3.113 4.7959 3.01074L5 3H15.3154ZM12.4209 16.8252V18H13.5967L16.3945 15.2012L15.2256 14.0322L12.4209 16.8252ZM16.958 12.4209C16.9267 12.4209 16.8875 12.426 16.8369 12.4443C16.832 12.4461 16.8136 12.454 16.7812 12.4863L16.7793 12.4873L15.9346 13.3271L17.1016 14.4941L17.9346 13.6611C17.9592 13.6365 17.9674 13.6205 17.9717 13.6084C17.9945 13.5427 18 13.4953 18 13.4629L17.9961 13.4316C17.9933 13.4178 17.9883 13.4005 17.9795 13.3789C17.9614 13.3348 17.9366 13.2944 17.9033 13.2549L17.1562 12.5068C17.1366 12.4872 17.1188 12.4733 17.1035 12.4629L17.0635 12.4414C17.0314 12.4283 16.9986 12.4209 16.958 12.4209ZM11.7637 7.55273C12.3157 7.55302 12.7637 8.00063 12.7637 8.55273V9.56836H11.7637V8.55273H8.55273V12.6055H11.7637V11.5898H12.7637V12.6055C12.7636 13.1575 12.3156 13.6052 11.7637 13.6055H8.55273C8.00052 13.6055 7.55285 13.1577 7.55273 12.6055V8.55273C7.55273 8.00045 8.00045 7.55273 8.55273 7.55273H11.7637Z" fill="currentColor"/>
</svg>
